<svg width="56" height="56" viewBox="0 0 56 56" fill="none" xmlns="http://www.w3.org/2000/svg">
<path fill-rule="evenodd" clip-rule="evenodd" d="M23 3.00004C23.0005 2.47866 22.8379 1.97018 22.5351 1.54576C22.2323 1.12134 21.8043 0.80222 21.3112 0.633054C20.818 0.463888 20.2843 0.453144 19.7847 0.602325C19.2851 0.751507 18.8447 1.05315 18.525 1.46504L1.02503 23.965C0.68364 24.4039 0.498291 24.944 0.498291 25.5C0.498291 26.056 0.68364 26.5962 1.02503 27.035L18.525 49.535C18.8447 49.9469 19.2851 50.2486 19.7847 50.3978C20.2843 50.5469 20.818 50.5362 21.3112 50.367C21.8043 50.1979 22.2323 49.8787 22.5351 49.4543C22.8379 49.0299 23.0005 48.5214 23 48V38.025C36.4475 38.305 42.9075 40.8575 46.1525 43.6325C49.2375 46.27 49.8025 49.3725 50.39 52.6225L50.5425 53.46C50.6547 54.0593 50.982 54.5969 51.4629 54.9718C51.9437 55.3466 52.545 55.5328 53.1535 55.4953C53.762 55.4578 54.3359 55.1993 54.7671 54.7683C55.1984 54.3373 55.4572 53.7635 55.495 53.155C55.9225 46.285 55.28 36.33 50.4275 28.0025C45.7175 19.92 37.235 13.705 23 13.055V3.00004Z" fill="#7E6C6C"/>
</svg>
