<svg width="20" height="23" viewBox="0 0 20 23" fill="none" xmlns="http://www.w3.org/2000/svg">
<g clip-path="url(#clip0_20_96)">
<path d="M0 20.7143C0 21.8973 0.959821 22.8571 2.14286 22.8571H17.8571C19.0402 22.8571 20 21.8973 20 20.7143V8.57143H0V20.7143ZM14.2857 11.9643C14.2857 11.6696 14.5268 11.4286 14.8214 11.4286H16.6071C16.9018 11.4286 17.1429 11.6696 17.1429 11.9643V13.75C17.1429 14.0446 16.9018 14.2857 16.6071 14.2857H14.8214C14.5268 14.2857 14.2857 14.0446 14.2857 13.75V11.9643ZM14.2857 17.6786C14.2857 17.3839 14.5268 17.1429 14.8214 17.1429H16.6071C16.9018 17.1429 17.1429 17.3839 17.1429 17.6786V19.4643C17.1429 19.7589 16.9018 20 16.6071 20H14.8214C14.5268 20 14.2857 19.7589 14.2857 19.4643V17.6786ZM8.57143 11.9643C8.57143 11.6696 8.8125 11.4286 9.10714 11.4286H10.8929C11.1875 11.4286 11.4286 11.6696 11.4286 11.9643V13.75C11.4286 14.0446 11.1875 14.2857 10.8929 14.2857H9.10714C8.8125 14.2857 8.57143 14.0446 8.57143 13.75V11.9643ZM8.57143 17.6786C8.57143 17.3839 8.8125 17.1429 9.10714 17.1429H10.8929C11.1875 17.1429 11.4286 17.3839 11.4286 17.6786V19.4643C11.4286 19.7589 11.1875 20 10.8929 20H9.10714C8.8125 20 8.57143 19.7589 8.57143 19.4643V17.6786ZM2.85714 11.9643C2.85714 11.6696 3.09821 11.4286 3.39286 11.4286H5.17857C5.47321 11.4286 5.71429 11.6696 5.71429 11.9643V13.75C5.71429 14.0446 5.47321 14.2857 5.17857 14.2857H3.39286C3.09821 14.2857 2.85714 14.0446 2.85714 13.75V11.9643ZM2.85714 17.6786C2.85714 17.3839 3.09821 17.1429 3.39286 17.1429H5.17857C5.47321 17.1429 5.71429 17.3839 5.71429 17.6786V19.4643C5.71429 19.7589 5.47321 20 5.17857 20H3.39286C3.09821 20 2.85714 19.7589 2.85714 19.4643V17.6786ZM17.8571 2.85714H15.7143V0.714286C15.7143 0.321429 15.3929 0 15 0H13.5714C13.1786 0 12.8571 0.321429 12.8571 0.714286V2.85714H7.14286V0.714286C7.14286 0.321429 6.82143 0 6.42857 0H5C4.60714 0 4.28571 0.321429 4.28571 0.714286V2.85714H2.14286C0.959821 2.85714 0 3.81696 0 5V7.14286H20V5C20 3.81696 19.0402 2.85714 17.8571 2.85714Z" fill="#5C95FF"/>
</g>
<defs>
<clipPath id="clip0_20_96">
<rect width="20" height="22.8571" fill="white"/>
</clipPath>
</defs>
</svg>
