<svg width="60" height="60" viewBox="0 0 60 60" fill="none" xmlns="http://www.w3.org/2000/svg">
<g clip-path="url(#clip0_107_19)">
<rect width="60" height="60" transform="translate(60) rotate(90)" fill="#7E6C6C"/>
<rect x="13" y="11" width="34" height="37" fill="white"/>
<path d="M30 60C22.0435 60 14.4129 56.8393 8.78679 51.2132C3.1607 45.5871 -1.65913e-06 37.9565 -1.31134e-06 30C-9.63552e-07 22.0435 3.1607 14.4129 8.7868 8.78679C14.4129 3.1607 22.0435 -1.65913e-06 30 -1.31134e-06C37.9565 -9.63552e-07 45.5871 3.1607 51.2132 8.7868C56.8393 14.4129 60 22.0435 60 30C60 37.9565 56.8393 45.5871 51.2132 51.2132C45.5871 56.8393 37.9565 60 30 60ZM40.9012 25.4625C41.1009 25.1821 41.2195 24.8522 41.2441 24.509C41.2686 24.1657 41.1983 23.8222 41.0406 23.5163C40.883 23.2103 40.6442 22.9537 40.3504 22.7744C40.0566 22.5951 39.7192 22.5002 39.375 22.5L20.625 22.5C20.2808 22.5002 19.9434 22.5951 19.6496 22.7744C19.3558 22.9537 19.117 23.2103 18.9594 23.5163C18.8017 23.8222 18.7314 24.1657 18.7559 24.5089C18.7805 24.8522 18.8991 25.1821 19.0987 25.4625L28.4737 38.5875C28.6472 38.8306 28.8762 39.0287 29.1417 39.1654C29.4071 39.3021 29.7014 39.3734 30 39.3734C30.2986 39.3734 30.5929 39.3021 30.8583 39.1654C31.1238 39.0287 31.3528 38.8306 31.5262 38.5875L40.9012 25.4625Z" fill="#7E6C6C"/>
</g>
<defs>
<clipPath id="clip0_107_19">
<rect width="60" height="60" fill="white" transform="translate(60) rotate(90)"/>
</clipPath>
</defs>
</svg>
