<svg width="60" height="60" viewBox="0 0 60 60" fill="none" xmlns="http://www.w3.org/2000/svg">
<rect width="60" height="60" fill="#5C95FF"/>
<rect x="13" y="11" width="34" height="37" fill="white"/>
<path d="M60 30C60 37.9565 56.8393 45.5871 51.2132 51.2132C45.5871 56.8393 37.9565 60 30 60C22.0435 60 14.4129 56.8393 8.7868 51.2132C3.16071 45.5871 0 37.9565 0 30C0 22.0435 3.16071 14.4129 8.7868 8.7868C14.4129 3.16071 22.0435 0 30 0C37.9565 0 45.5871 3.16071 51.2132 8.7868C56.8393 14.4129 60 22.0435 60 30ZM23.4375 18.75C20.85 18.75 18.75 20.85 18.75 23.4375V36.5625C18.75 37.8057 19.2439 38.998 20.1229 39.8771C21.002 40.7561 22.1943 41.25 23.4375 41.25C24.6807 41.25 25.873 40.7561 26.7521 39.8771C27.6311 38.998 28.125 37.8057 28.125 36.5625V23.4375C28.125 20.85 26.025 18.75 23.4375 18.75ZM36.5625 18.75C33.975 18.75 31.875 20.85 31.875 23.4375V36.5625C31.875 37.8057 32.3689 38.998 33.2479 39.8771C34.127 40.7561 35.3193 41.25 36.5625 41.25C37.8057 41.25 38.998 40.7561 39.8771 39.8771C40.7561 38.998 41.25 37.8057 41.25 36.5625V23.4375C41.25 20.85 39.15 18.75 36.5625 18.75Z" fill="#5C95FF"/>
</svg>
