<svg width="60" height="60" viewBox="0 0 60 60" fill="none" xmlns="http://www.w3.org/2000/svg">
<rect width="60" height="60" fill="#F87575"/>
<rect x="15" y="11" width="34" height="37" fill="white"/>
<path d="M60 30C60 37.9565 56.8393 45.5871 51.2132 51.2132C45.5871 56.8393 37.9565 60 30 60C22.0435 60 14.4129 56.8393 8.7868 51.2132C3.16071 45.5871 0 37.9565 0 30C0 22.0435 3.16071 14.4129 8.7868 8.7868C14.4129 3.16071 22.0435 0 30 0C37.9565 0 45.5871 3.16071 51.2132 8.7868C56.8393 14.4129 60 22.0435 60 30V30ZM24.375 18.75C22.8832 18.75 21.4524 19.3426 20.3975 20.3975C19.3426 21.4524 18.75 22.8832 18.75 24.375V35.625C18.75 37.1168 19.3426 38.5476 20.3975 39.6025C21.4524 40.6574 22.8832 41.25 24.375 41.25H35.625C37.1168 41.25 38.5476 40.6574 39.6025 39.6025C40.6574 38.5476 41.25 37.1168 41.25 35.625V24.375C41.25 22.8832 40.6574 21.4524 39.6025 20.3975C38.5476 19.3426 37.1168 18.75 35.625 18.75H24.375Z" fill="#F87575"/>
</svg>
