<svg width="60" height="60" viewBox="0 0 60 60" fill="none" xmlns="http://www.w3.org/2000/svg">
<g clip-path="url(#clip0_107_17)">
<rect width="60" height="60" transform="translate(0 60) rotate(-90)" fill="#7E6C6C"/>
<rect x="13" y="13" width="34" height="37" fill="white"/>
<path d="M30 -1.31134e-06C37.9565 -1.65913e-06 45.5871 3.1607 51.2132 8.78679C56.8393 14.4129 60 22.0435 60 30C60 37.9565 56.8393 45.5871 51.2132 51.2132C45.5871 56.8393 37.9565 60 30 60C22.0435 60 14.4129 56.8393 8.7868 51.2132C3.16071 45.5871 -9.63552e-07 37.9565 -1.31134e-06 30C-1.65913e-06 22.0435 3.1607 14.4129 8.78679 8.78679C14.4129 3.1607 22.0435 -9.63552e-07 30 -1.31134e-06V-1.31134e-06ZM19.0987 34.5375C18.8991 34.8179 18.7805 35.1478 18.7559 35.491C18.7314 35.8343 18.8017 36.1778 18.9594 36.4837C19.117 36.7897 19.3558 37.0463 19.6496 37.2256C19.9434 37.4049 20.2808 37.4998 20.625 37.5L39.375 37.5C39.7192 37.4998 40.0566 37.4049 40.3504 37.2256C40.6442 37.0463 40.883 36.7897 41.0406 36.4837C41.1983 36.1778 41.2686 35.8343 41.2441 35.491C41.2195 35.1478 41.1009 34.8179 40.9012 34.5375L31.5262 21.4125C31.3528 21.1694 31.1238 20.9713 30.8583 20.8346C30.5929 20.6979 30.2986 20.6266 30 20.6266C29.7014 20.6266 29.4071 20.6979 29.1417 20.8346C28.8762 20.9713 28.6472 21.1694 28.4737 21.4125L19.0987 34.5375V34.5375Z" fill="#7E6C6C"/>
</g>
<defs>
<clipPath id="clip0_107_17">
<rect width="60" height="60" fill="white" transform="translate(0 60) rotate(-90)"/>
</clipPath>
</defs>
</svg>
