<svg width="200" height="200" viewBox="0 0 200 200" fill="none" xmlns="http://www.w3.org/2000/svg">
<path d="M39.3721 70.4214L0 1.9449H40.0524L55.7842 34.765L71.601 1.9449H111.483L72.2813 70.4214V108.914H39.3721V70.4214Z" fill="#5C95FF"/>
<path d="M116.494 55.3485C116.494 60.1567 117.514 64.5597 119.555 68.5575C121.596 72.5014 124.459 75.6618 128.144 78.0389C131.829 80.362 136.137 81.5235 141.069 81.5235C146.058 81.5235 150.395 80.362 154.08 78.0389C157.765 75.6618 160.628 72.5014 162.669 68.5575C164.71 64.5597 165.73 60.1567 165.73 55.3485C165.73 50.5403 164.71 46.1642 162.669 42.2204C160.628 38.2766 157.765 35.1162 154.08 32.7391C150.395 30.362 146.058 29.1734 141.069 29.1734C136.137 29.1734 131.829 30.362 128.144 32.7391C124.459 35.1162 121.596 38.2766 119.555 42.2204C117.514 46.1642 116.494 50.5403 116.494 55.3485ZM82.1389 55.3485C82.1389 47.5689 83.6129 40.3296 86.5609 33.6305C89.5655 26.8774 93.7323 20.9887 99.0613 15.9643C104.39 10.94 110.626 7.02324 117.769 4.21394C124.969 1.40465 132.736 0 141.069 0C149.573 0 157.397 1.40465 164.54 4.21394C171.739 7.02324 177.975 10.94 183.248 15.9643C188.577 20.9887 192.687 26.8774 195.578 33.6305C198.526 40.3296 200 47.5689 200 55.3485C200 63.1821 198.583 70.4754 195.748 77.2285C192.914 83.9276 188.86 89.8163 183.588 94.8947C178.372 99.919 172.165 103.836 164.965 106.645C157.765 109.454 149.8 110.859 141.069 110.859C132.112 110.859 124.005 109.454 116.749 106.645C109.549 103.836 103.37 99.919 98.2109 94.8947C93.052 89.8163 89.0836 83.9276 86.3057 77.2285C83.5279 70.4754 82.1389 63.1821 82.1389 55.3485Z" fill="#5C95FF"/>
<path d="M67.5684 89.141C74.8249 89.141 81.2593 89.8973 86.8718 91.41C92.5409 92.8687 97.1045 94.4354 100.563 96.1102C104.078 97.785 106.232 98.9195 107.026 99.5138L91.4638 124.635C90.5567 123.987 88.9694 123.096 86.7017 121.961C84.4907 120.773 81.9963 119.719 79.2185 118.801C76.4406 117.882 73.7761 117.423 71.225 117.423C68.2204 117.423 65.726 117.828 63.7418 118.639C61.7576 119.395 60.7655 120.719 60.7655 122.609C60.7655 123.906 61.304 125.095 62.3812 126.175C63.4583 127.256 65.2724 128.363 67.8235 129.498C70.4313 130.632 73.9745 131.929 78.4531 133.387C82.8184 134.738 86.8151 136.413 90.4433 138.412C94.0716 140.411 97.1896 142.788 99.7974 145.543C102.462 148.298 104.531 151.459 106.005 155.024C107.479 158.59 108.216 162.615 108.216 167.099C108.216 173.042 106.912 178.12 104.304 182.334C101.753 186.494 98.3234 189.87 94.0149 192.464C89.7063 195.057 84.8876 196.948 79.5586 198.136C74.2863 199.379 68.929 200 63.4866 200C55.153 200 47.7265 199.136 41.207 197.407C34.7442 195.678 29.5003 193.814 25.4752 191.815C21.5068 189.762 19.0691 188.304 18.162 187.439L34.234 161.264C34.8576 161.75 36.1898 162.534 38.2307 163.614C40.3283 164.695 42.8227 165.829 45.7139 167.018C48.6619 168.206 51.6949 169.233 54.8129 170.097C57.9309 170.908 60.8222 171.313 63.4866 171.313C67.0582 171.313 69.6943 170.827 71.3951 169.854C73.0958 168.882 73.9462 167.477 73.9462 165.64C73.9462 164.344 73.4076 163.128 72.3305 161.994C71.31 160.859 69.4392 159.67 66.718 158.428C64.0536 157.131 60.2552 155.646 55.3231 153.971C50.561 152.296 46.0257 150.108 41.7172 147.407C37.4087 144.706 33.8938 141.194 31.1726 136.872C28.4515 132.55 27.0909 127.147 27.0909 120.665C27.0909 114.073 29.0184 108.428 32.8734 103.728C36.7284 99.0276 41.7456 95.4349 47.9249 92.9498C54.1042 90.4106 60.6521 89.141 67.5684 89.141Z" fill="#5C95FF"/>
<path d="M94.9596 91.0859H145.301C152.104 91.0859 158.114 92.4635 163.329 95.2188C168.545 97.92 172.627 101.81 175.575 106.888C178.522 111.912 179.996 117.882 179.996 124.797C179.996 131.659 178.806 137.223 176.425 141.491C174.101 145.705 171.294 148.865 168.006 150.972C164.718 153.079 161.685 154.43 158.907 155.024L185.779 198.055H148.873L125.743 157.455H127.954V198.055H94.9596V91.0859ZM127.954 136.224H133.396C136.401 136.224 139.264 135.548 141.985 134.198C144.763 132.847 146.152 130.065 146.152 125.851C146.152 121.637 144.82 118.855 142.155 117.504C139.491 116.153 136.656 115.478 133.651 115.478H127.954V136.224Z" fill="#5C95FF"/>
</svg>
